<svg width="214" height="67" viewBox="0 0 214 67" fill="none" xmlns="http://www.w3.org/2000/svg">
<g opacity="0.25" clip-path="url(#clip0_132_647)">
<path d="M182.826 32.0029V48.819H188.201V37.6083H207.858V48.819H213.233V32.0029H182.826ZM187.587 26.5511H208.319C211.237 26.0136 213.31 23.4029 213.924 20.9458H181.982C182.596 23.4029 184.746 25.9369 187.587 26.5511ZM166.471 48.819C169.158 47.6672 170.617 45.6707 171.232 43.3672H147.044V21.0226H141.592V48.819H166.471ZM101.28 26.4744H120.476C123.394 25.6297 125.775 23.4029 126.389 21.0226H95.9819V37.4547H120.86V43.2136H101.357C98.2854 44.0583 95.6747 46.1315 94.3694 48.819H126.235V32.0029H101.357L101.28 26.4744ZM53.9802 26.5511H74.7123C77.6301 26.0136 79.7801 23.4029 80.3176 20.9458H48.2981C48.9124 23.4029 51.0624 25.9369 53.9802 26.5511ZM53.9802 37.5315H74.7123C77.6301 36.994 79.7801 34.3833 80.3176 31.9261H48.2981C48.9124 34.3833 51.0624 36.9172 53.9802 37.5315ZM53.9802 48.819H74.7123C77.6301 48.2815 79.7801 45.6707 80.3176 43.2136H48.2981C48.9124 45.6707 51.0624 48.2815 53.9802 48.819Z" fill="#5E5E5E"/>
<path d="M0 21.0226C0.614284 23.4797 2.76428 25.9369 5.60534 26.5511H14.3589L14.8196 26.7047V48.7422H20.2714V26.7047L20.7321 26.5511H29.4856C32.4035 25.7833 34.4767 23.4797 35.091 21.0226V20.9458L0 21.0226Z" fill="#5E5E5E"/>
</g>
<defs>
<clipPath id="clip0_132_647">
<rect width="213.479" height="66.9738" fill="white"/>
</clipPath>
</defs>
</svg>
