<svg width="189" height="67" viewBox="0 0 189 67" fill="none" xmlns="http://www.w3.org/2000/svg">
<g opacity="0.25">
<path d="M0 2.79053H40.6624V23.1217H20.3312L0 2.79053ZM0 23.1217H20.3312L40.6624 43.4529H0V23.1217ZM0 43.4529H20.3312V63.7841L0 43.4529Z" fill="black"/>
<path d="M63.6055 18.8299H80.042V24.0529H69.8266V31.3112H80.042V36.4189H69.8266V45.7124H63.6055V18.8299ZM83.4214 27.2016H89.2974V31.0805C89.6044 29.7475 90.2323 28.7243 91.1792 28.0081C92.1503 27.2648 93.2284 26.8946 94.4051 26.8946C95.02 26.8946 95.5325 26.9467 95.9408 27.0481V32.5018C95.3548 32.4311 94.7651 32.393 94.1744 32.3865C92.5614 32.3865 91.3466 32.9102 90.5262 33.9604C89.7086 34.9845 89.2974 36.5203 89.2974 38.5695V45.7124H83.4242V27.2016H83.4214ZM105.217 46.2119C103.425 46.2119 101.862 45.7887 100.531 44.9441C99.2253 44.0995 98.1873 42.9004 97.5361 41.4875C96.845 40.0038 96.4971 38.3248 96.4971 36.457C96.4971 34.6134 96.858 32.9483 97.5743 31.4647C98.2459 30.0312 99.3119 28.8192 100.647 27.9699C102.002 27.1253 103.552 26.7021 105.294 26.7021C106.599 26.7021 107.765 26.9849 108.789 27.5476C109.812 28.1123 110.58 28.8806 111.093 29.8517V27.2016H116.93V45.7124H111.093V43.1004C110.58 44.0223 109.787 44.7766 108.711 45.3664C107.636 45.9366 106.434 46.2268 105.217 46.2119ZM106.907 41.334C108.314 41.334 109.403 40.8736 110.171 39.9517C110.939 39.0299 111.323 37.8644 111.323 36.457C111.323 35.0747 110.939 33.9222 110.171 33.0004C109.403 32.0786 108.314 31.6181 106.907 31.6181C105.574 31.6181 104.5 32.0656 103.681 32.9623C102.888 33.859 102.49 35.0227 102.49 36.457C102.49 37.8914 102.888 39.0681 103.681 39.9899C104.5 40.8866 105.576 41.334 106.907 41.334ZM121.039 27.2016H126.915V29.8898C127.326 28.9411 127.991 28.1727 128.911 27.5858C129.86 26.9988 130.961 26.7021 132.215 26.7021C135.134 26.7021 137.067 27.8406 138.013 30.1205C138.534 29.0871 139.349 28.2322 140.357 27.663C141.434 27.0146 142.671 26.6825 143.928 26.7021C148.306 26.7021 150.495 29.2099 150.495 34.2292V45.7124H144.581V35.3045C144.581 34.0515 144.35 33.1297 143.889 32.54C143.428 31.9521 142.737 31.6563 141.815 31.6563C140.817 31.6563 140.049 32.0023 139.511 32.6934C138.973 33.3595 138.705 34.5231 138.705 36.1882V45.7124H132.79V35.2664C132.79 34.0125 132.561 33.1027 132.099 32.54C131.666 31.9521 130.986 31.6563 130.066 31.6563C129.041 31.6563 128.259 32.0023 127.722 32.6934C127.184 33.3595 126.915 34.5231 126.915 36.1882V45.7124H121.041V27.2016H121.039ZM172.568 35.497C172.568 36.2896 172.516 37.1481 172.412 38.07H158.743C158.795 39.2736 159.203 40.1936 159.972 40.8354C160.74 41.4745 161.779 41.7954 163.082 41.7954C164.901 41.7954 166.053 41.2438 166.539 40.1434H172.299C172.017 41.9619 171.018 43.4325 169.303 44.5599C167.614 45.6603 165.54 46.2119 163.082 46.2119C159.908 46.2119 157.412 45.3534 155.593 43.6381C153.802 41.9219 152.905 39.5294 152.905 36.457C152.905 34.4599 153.314 32.7316 154.134 31.2721C154.925 29.8145 156.146 28.635 157.628 27.8927C159.14 27.1002 160.893 26.7021 162.892 26.7021C164.785 26.7021 166.461 27.0732 167.921 27.8165C169.406 28.5597 170.546 29.5959 171.338 30.927C172.159 32.26 172.568 33.7827 172.568 35.497ZM166.767 34.4217C166.741 33.193 166.396 32.2572 165.729 31.6181C165.065 30.9791 164.103 30.6582 162.85 30.6582C161.596 30.6582 160.598 31.0033 159.854 31.6954C159.138 32.3614 158.767 33.2692 158.74 34.4217H166.767ZM175.159 27.2016H181.035V31.0805C181.342 29.7475 181.97 28.7243 182.917 28.0081C183.836 27.2844 184.972 26.8918 186.142 26.8946C186.756 26.8946 187.27 26.9467 187.678 27.0481V32.5018C187.092 32.4311 186.502 32.393 185.912 32.3865C184.299 32.3865 183.084 32.9102 182.264 33.9604C181.443 34.9845 181.035 36.5203 181.035 38.5695V45.7124H175.159V27.2016Z" fill="black"/>
</g>
</svg>
