<svg width="179" height="67" viewBox="0 0 179 67" fill="none" xmlns="http://www.w3.org/2000/svg">
<g opacity="0.25" clip-path="url(#clip0_132_639)">
<path d="M94.2475 19.6038C94.2475 21.615 92.6274 23.2351 90.6162 23.2351C88.6049 23.2351 86.9848 21.615 86.9848 19.6038C86.9848 17.5925 88.5491 15.9724 90.6162 15.9724C92.6833 16.0283 94.2475 17.6484 94.2475 19.6038ZM79.2751 26.9224C79.2751 27.2576 79.2751 27.8163 79.2751 27.8163C79.2751 27.8163 77.5432 25.5816 73.8559 25.5816C67.7664 25.5816 63.0177 30.2186 63.0177 36.6433C63.0177 43.0122 67.7105 47.7051 73.8559 47.7051C77.5991 47.7051 79.2751 45.4145 79.2751 45.4145V46.3642C79.2751 46.8112 79.6103 47.1464 80.0572 47.1464H84.5825V26.1403C84.5825 26.1403 80.4483 26.1403 80.0572 26.1403C79.6103 26.1403 79.2751 26.5313 79.2751 26.9224ZM79.2751 40.3864C78.4371 41.6155 76.7611 42.677 74.7498 42.677C71.1743 42.677 68.4368 40.4423 68.4368 36.6433C68.4368 32.8443 71.1743 30.6096 74.7498 30.6096C76.7052 30.6096 78.4929 31.727 79.2751 32.9002V40.3864ZM87.9345 26.1403H93.2978V47.1464H87.9345V26.1403ZM168.048 25.5816C164.361 25.5816 162.629 27.8163 162.629 27.8163V16.0283H157.266V47.1464C157.266 47.1464 161.4 47.1464 161.791 47.1464C162.238 47.1464 162.573 46.7553 162.573 46.3642V45.4145C162.573 45.4145 164.305 47.7051 167.992 47.7051C174.082 47.7051 178.831 43.0122 178.831 36.6433C178.831 30.2744 174.082 25.5816 168.048 25.5816ZM167.154 42.6211C165.087 42.6211 163.467 41.5597 162.629 40.3306V32.8443C163.467 31.727 165.255 30.5538 167.154 30.5538C170.73 30.5538 173.467 32.7885 173.467 36.5875C173.467 40.3864 170.73 42.6211 167.154 42.6211ZM154.473 34.688V47.2023H149.109V35.3025C149.109 31.8387 147.992 30.442 144.975 30.442C143.355 30.442 141.679 31.2801 140.617 32.5091V47.1464H135.254V26.1403H139.5C139.947 26.1403 140.282 26.5313 140.282 26.9224V27.8163C141.847 26.1961 143.914 25.5816 145.981 25.5816C148.327 25.5816 150.283 26.252 151.847 27.5928C153.746 29.1571 154.473 31.1683 154.473 34.688ZM122.237 25.5816C118.55 25.5816 116.818 27.8163 116.818 27.8163V16.0283H111.455V47.1464C111.455 47.1464 115.589 47.1464 115.98 47.1464C116.427 47.1464 116.762 46.7553 116.762 46.3642V45.4145C116.762 45.4145 118.494 47.7051 122.181 47.7051C128.271 47.7051 133.02 43.0122 133.02 36.6433C133.075 30.2744 128.327 25.5816 122.237 25.5816ZM121.343 42.6211C119.276 42.6211 117.656 41.5597 116.818 40.3306V32.8443C117.656 31.727 119.444 30.5538 121.343 30.5538C124.919 30.5538 127.656 32.7885 127.656 36.5875C127.656 40.3864 124.919 42.6211 121.343 42.6211ZM106.818 25.5816C108.438 25.5816 109.276 25.8609 109.276 25.8609V30.8331C109.276 30.8331 104.806 29.3247 102.013 32.5091V47.2023H96.6498V26.1403C96.6498 26.1403 100.784 26.1403 101.175 26.1403C101.622 26.1403 101.957 26.5313 101.957 26.9224V27.8163C102.963 26.6431 105.142 25.5816 106.818 25.5816ZM51.1179 45.2469C50.8386 44.5765 50.5593 43.8502 50.2799 43.2357C49.833 42.2301 49.386 41.2803 48.995 40.3864L48.9391 40.3306C45.0843 31.9505 40.9501 23.4586 36.5924 15.0785L36.4248 14.7433C35.9779 13.9053 35.5309 13.0114 35.084 12.1175C34.5253 11.1119 33.9666 10.0504 33.0728 9.04483C31.285 6.81014 28.7151 5.58105 25.9776 5.58105C23.1842 5.58105 20.6702 6.81014 18.8266 8.9331C17.9886 9.93871 17.374 11.0002 16.8154 12.0058C16.3684 12.8997 15.9215 13.7936 15.4745 14.6316L15.3069 14.9668C11.0052 23.3469 6.8151 31.8387 2.96026 40.2188L2.90439 40.3306C2.51332 41.2244 2.06638 42.1742 1.61944 43.1798C1.3401 43.7943 1.06076 44.4648 0.781428 45.191C0.0551519 47.2581 -0.168318 49.2135 0.111019 51.2247C0.72556 55.4148 3.51893 58.9344 7.37378 60.4987C8.82633 61.1132 10.3347 61.3926 11.899 61.3926C12.346 61.3926 12.9046 61.3367 13.3516 61.2808C15.1952 61.0574 17.0947 60.4428 18.9383 59.3813C21.2289 58.0964 23.4077 56.2528 25.8659 53.5711C28.324 56.2528 30.5587 58.0964 32.7934 59.3813C34.6371 60.4428 36.5365 61.0574 38.3802 61.2808C38.8271 61.3367 39.3858 61.3926 39.8327 61.3926C41.397 61.3926 42.9613 61.1132 44.358 60.4987C48.2687 58.9344 51.0062 55.3589 51.6207 51.2247C52.0677 49.2693 51.8442 47.314 51.1179 45.2469ZM25.9217 48.152C22.9049 44.353 20.9496 40.7775 20.2791 37.7607C19.9998 36.4757 19.9439 35.3584 20.1115 34.3528C20.2233 33.4589 20.5585 32.6767 21.0054 32.0063C22.0669 30.4979 23.8547 29.5482 25.9217 29.5482C27.9888 29.5482 29.8325 30.442 30.8381 32.0063C31.285 32.6767 31.6202 33.4589 31.732 34.3528C31.8996 35.3584 31.8437 36.5316 31.5644 37.7607C30.8939 40.7216 28.9386 44.2971 25.9217 48.152ZM48.2128 50.7778C47.8218 53.6829 45.8664 56.1969 43.1289 57.3143C41.7881 57.8729 40.3355 58.0405 38.883 57.8729C37.4863 57.7053 36.0896 57.2584 34.6371 56.4204C32.6258 55.303 30.6146 53.5711 28.2682 51.0012C31.9554 46.476 34.1901 42.3418 35.0281 38.6545C35.4192 36.9227 35.4751 35.3584 35.3075 33.9058C35.084 32.5091 34.5812 31.2242 33.799 30.1068C32.0672 27.5928 29.1621 26.1403 25.9217 26.1403C22.6814 26.1403 19.7763 27.6487 18.0444 30.1068C17.2623 31.2242 16.7595 32.5091 16.536 33.9058C16.3126 35.3584 16.3684 36.9785 16.8154 38.6545C17.6534 42.3418 19.9439 46.5318 23.5753 51.0571C21.2848 53.627 19.2177 55.3589 17.2064 56.4762C15.7539 57.3143 14.3572 57.7612 12.9605 57.9288C11.4521 58.0964 9.99954 57.8729 8.71459 57.3701C5.97709 56.2528 4.02174 53.7387 3.63066 50.8336C3.46306 49.437 3.5748 48.0403 4.13347 46.476C4.30107 45.9173 4.58041 45.3586 4.85975 44.6882C5.25082 43.7943 5.69776 42.8446 6.1447 41.8949L6.20056 41.7831C10.0554 33.4589 14.1896 24.967 18.4914 16.6987L18.659 16.3635C19.1059 15.5254 19.5529 14.6316 19.9998 13.7936C20.4467 12.8997 20.9496 12.0617 21.5641 11.3354C22.7373 9.99458 24.3016 9.2683 26.0335 9.2683C27.7654 9.2683 29.3297 9.99458 30.5029 11.3354C31.1174 12.0617 31.6202 12.8997 32.0672 13.7936C32.5141 14.6316 32.961 15.5254 33.408 16.3635L33.5756 16.6987C37.8215 25.0229 41.9557 33.5147 45.8105 41.839V41.8949C46.2575 42.7887 46.6485 43.7943 47.0955 44.6882C47.3748 45.3586 47.6542 45.9173 47.8218 46.476C48.2687 47.9285 48.4363 49.3252 48.2128 50.7778Z" fill="black"/>
</g>
<defs>
<clipPath id="clip0_132_639">
<rect width="178.597" height="66.9738" fill="white"/>
</clipPath>
</defs>
</svg>
