<svg width="199" height="67" viewBox="0 0 199 67" fill="none" xmlns="http://www.w3.org/2000/svg">
<g opacity="0.25" clip-path="url(#clip0_132_688)">
<path fill-rule="evenodd" clip-rule="evenodd" d="M3.40277 50.0209C-1.13432 45.5223 -1.13424 38.2287 3.40291 33.7301L15.726 21.5117C19.5615 17.7088 25.4115 17.1206 29.8701 19.7473C31.2493 20.5597 31.2372 22.4234 30.1028 23.5481C28.9686 24.6727 27.1169 24.5759 25.5773 24.1294C23.6058 23.5577 21.3886 24.0427 19.8337 25.5844L7.51057 37.8028C5.24199 40.0521 5.24196 43.6989 7.51051 45.9482C9.77909 48.1976 13.4573 48.1976 15.7258 45.9482L40.3718 21.5118C44.9091 17.0132 52.2652 17.0132 56.8025 21.5118L69.1257 33.7301C73.6628 38.2285 73.6628 45.5223 69.1257 50.0209C64.5885 54.5195 57.2323 54.5195 52.695 50.0209L48.5874 45.9482L43.4528 51.0392C39.6173 54.8421 33.7673 55.4302 29.3086 52.8035C27.9295 51.9911 27.9416 50.1275 29.076 49.0028C30.2102 47.8781 32.0617 47.9748 33.6015 48.4213C35.573 48.9931 37.7902 48.5081 39.3451 46.9664L44.6265 41.73C46.814 39.5611 50.3607 39.5611 52.5484 41.73L56.8028 45.9482C59.0713 48.1975 62.7494 48.1975 65.0179 45.9482C67.2865 43.6989 67.2865 40.0521 65.0179 37.8028L52.6947 25.5846C50.4261 23.3353 46.7481 23.3353 44.4795 25.5846L19.8336 50.0211C15.2963 54.5197 7.93995 54.5197 3.40277 50.0209Z" fill="black"/>
<path d="M118.934 24.6667C116.08 24.6667 113.917 25.689 112.489 27.7336C111.235 25.689 109.245 24.6667 106.606 24.6667C103.881 24.6667 101.891 25.6038 100.594 27.5206V25.263H95.0135V46.561H100.594V34.5915C100.594 31.482 102.194 29.7782 104.66 29.7782C106.952 29.7782 108.293 31.2691 108.293 33.8249V46.561H113.873V34.5915C113.873 31.482 115.344 29.7782 117.896 29.7782C120.189 29.7782 121.53 31.2691 121.53 33.8249V46.561H127.11V33.4414C127.11 28.117 123.909 24.6667 118.934 24.6667Z" fill="black"/>
<path d="M147.854 27.7762C146.167 25.689 143.831 24.6667 140.803 24.6667C137.905 24.6667 135.44 25.7742 133.363 27.9466C131.33 30.119 130.292 32.7599 130.292 35.9121C130.292 39.0641 131.33 41.7477 133.363 43.9202C135.44 46.0925 137.905 47.1575 140.803 47.1575C143.831 47.1575 146.167 46.1351 147.854 44.0479V46.561H153.435V25.263H147.854V27.7762ZM137.559 40.2568C136.434 39.1067 135.872 37.6584 135.872 35.9121C135.872 34.1656 136.434 32.7173 137.559 31.6098C138.684 30.4597 140.111 29.906 141.841 29.906C143.572 29.906 144.999 30.4597 146.124 31.6098C147.292 32.7173 147.854 34.1656 147.854 35.9121C147.854 37.6584 147.292 39.1067 146.124 40.2568C144.999 41.3644 143.572 41.9181 141.841 41.9181C140.111 41.9181 138.684 41.3644 137.559 40.2568Z" fill="black"/>
<path d="M174.024 28.9262V25.2629H157.802V30.4171H166.496L157.369 42.8977V46.5609H174.456V41.4068H164.852L174.024 28.9262Z" fill="black"/>
<path d="M197.787 38.1696C197.917 37.3604 198.003 36.6362 198.003 35.9121C198.003 32.7173 196.966 30.0764 194.89 27.904C192.857 25.7316 190.218 24.6667 187.06 24.6667C183.729 24.6667 180.961 25.7316 178.841 27.904C176.722 30.0338 175.64 32.7173 175.64 35.9121C175.64 39.1494 176.722 41.833 178.885 43.9626C181.048 46.0925 183.903 47.1575 187.493 47.1575C191.645 47.1575 194.804 45.6239 196.923 42.5996L192.424 40.0438C191.342 41.4495 189.699 42.1737 187.579 42.1737C184.249 42.1737 182.216 40.8532 181.48 38.1696H197.787ZM181.394 33.91C182.042 31.1839 184.075 29.6078 187.06 29.6078C189.612 29.6078 191.775 31.0135 192.424 33.91H181.394Z" fill="black"/>
</g>
<defs>
<clipPath id="clip0_132_688">
<rect width="198.12" height="66.97" fill="white"/>
</clipPath>
</defs>
</svg>
