<svg width="190" height="67" viewBox="0 0 190 67" fill="none" xmlns="http://www.w3.org/2000/svg">
<g opacity="0.25" clip-path="url(#clip0_132_643)">
<path d="M137.343 19.6061H133.615V47.5202H148.741V44.0538H137.343V19.6061ZM163.139 42.6246C162.199 43.5976 160.623 44.5707 158.501 44.5707C155.652 44.5707 154.5 43.1719 154.5 41.3171C154.5 38.55 156.41 37.2121 160.502 37.2121C161.259 37.2121 162.502 37.3033 163.139 37.4249V42.6246ZM159.289 25.7181C156.258 25.7181 153.5 26.7823 151.347 28.5764L152.681 30.8873C154.197 30.0055 156.076 29.0933 158.774 29.0933C161.835 29.0933 163.199 30.6745 163.199 33.3199V34.6883C162.593 34.5666 161.381 34.4754 160.593 34.4754C154.045 34.4754 150.741 36.7864 150.741 41.5908C150.741 45.9086 153.378 48.0675 157.38 48.0675C160.077 48.0675 162.654 46.8208 163.533 44.8139L164.2 47.5506H166.837V33.2591C166.807 28.7284 164.836 25.7181 159.289 25.7181ZM178.871 44.7227C177.476 44.7227 176.234 44.5403 175.294 44.1146V31.2218C176.567 30.1575 178.143 29.3974 180.144 29.3974C183.751 29.3974 185.145 31.9516 185.145 36.087C185.176 41.9556 182.902 44.7227 178.871 44.7227ZM180.447 25.7181C177.113 25.7181 175.294 27.9986 175.294 27.9986V24.3801V19.6061H171.626V46.8512C173.445 47.6114 175.961 48.0371 178.689 48.0371C185.661 48.0371 189.025 43.5672 189.025 35.8437C189.025 29.7622 185.933 25.7181 180.447 25.7181ZM96.6649 22.6469C99.9689 22.6469 102.121 23.7416 103.515 24.8666L105.122 22.0692C102.939 20.1535 99.9689 19.1196 96.8467 19.1196C88.905 19.1196 83.3276 23.9848 83.3276 33.776C83.3276 44.0538 89.3294 48.0675 96.2102 48.0675C99.6657 48.0675 102.576 47.2465 104.485 46.456L104.394 35.4789V31.982H94.1793V35.4484H100.696L100.787 43.7801C99.9385 44.2058 98.4533 44.5403 96.4527 44.5403C90.9359 44.5403 87.2379 41.0434 87.2379 33.7152C87.2379 26.2654 91.0572 22.6469 96.6649 22.6469ZM122.976 19.6061H119.308V24.2889V40.4961C119.308 45.0268 121.278 48.0371 126.825 48.0371C127.583 48.0371 128.341 47.9763 129.068 47.8243V44.5403C128.553 44.6315 127.977 44.6619 127.371 44.6619C124.309 44.6619 122.945 43.0807 122.945 40.4353V29.2757H129.068V26.235H122.945L122.976 19.6061ZM110.032 47.5202H113.7V26.235H110.032V47.5202ZM110.032 23.2855H113.7V19.6061H110.032V23.2855Z" fill="black"/>
<path d="M33.2216 64.1831L45.4676 26.417H20.9756L33.2216 64.1831Z" fill="black"/>
<path d="M33.2216 64.1831L20.9756 26.417H3.84937L33.2216 64.1831Z" fill="black"/>
<path d="M3.84984 26.417L0.121479 37.8806C-0.211952 38.9145 0.151791 40.0699 1.03083 40.7085L33.1917 64.1527L3.84984 26.417Z" fill="black"/>
<path d="M3.84937 26.4174H21.0059L13.6098 3.67262C13.246 2.48673 11.5789 2.48673 11.2151 3.67262L3.84937 26.4174Z" fill="black"/>
<path d="M33.2219 64.1831L45.4679 26.417H62.6244L33.2219 64.1831Z" fill="black"/>
<path d="M62.5943 26.417L66.3227 37.8806C66.6561 38.9145 66.2924 40.0699 65.4133 40.7085L33.2524 64.1527L62.5943 26.417Z" fill="black"/>
<path d="M62.594 26.4171H45.4375L52.8033 3.67228C53.1973 2.51679 54.8342 2.51679 55.1979 3.67228L62.594 26.4171Z" fill="black"/>
</g>
<defs>
<clipPath id="clip0_132_643">
<rect width="189.759" height="66.9738" fill="white"/>
</clipPath>
</defs>
</svg>
