<svg width="158" height="67" viewBox="0 0 158 67" fill="none" xmlns="http://www.w3.org/2000/svg">
<g clip-path="url(#clip0_132_692)">
<path d="M67.3016 35.7871C67.3016 43.2141 61.4914 48.6869 54.361 48.6869C47.2306 48.6869 41.4204 43.2141 41.4204 35.7871C41.4204 28.3077 47.2306 22.8872 54.361 22.8872C61.4914 22.8872 67.3016 28.3077 67.3016 35.7871ZM61.6368 35.7871C61.6368 31.1459 58.2693 27.9704 54.361 27.9704C50.4527 27.9704 47.0852 31.1459 47.0852 35.7871C47.0852 40.3817 50.4527 43.6038 54.361 43.6038C58.2693 43.6038 61.6368 40.3759 61.6368 35.7871Z" fill="#EA4335"/>
<path d="M95.2186 35.7871C95.2186 43.2141 89.4084 48.6869 82.278 48.6869C75.1476 48.6869 69.3374 43.2141 69.3374 35.7871C69.3374 28.3135 75.1476 22.8872 82.278 22.8872C89.4084 22.8872 95.2186 28.3077 95.2186 35.7871ZM89.5538 35.7871C89.5538 31.1459 86.1863 27.9704 82.278 27.9704C78.3696 27.9704 75.0022 31.1459 75.0022 35.7871C75.0022 40.3817 78.3696 43.6038 82.278 43.6038C86.1863 43.6038 89.5538 40.3759 89.5538 35.7871Z" fill="#FBBC05"/>
<path d="M121.972 23.6666V46.8258C121.972 56.3524 116.354 60.2433 109.712 60.2433C103.46 60.2433 99.697 56.0616 98.2779 52.6418L103.21 50.5888C104.088 52.6884 106.24 55.166 109.706 55.166C113.958 55.166 116.592 52.543 116.592 47.6052V45.7499H116.395C115.127 47.3144 112.684 48.6811 109.602 48.6811C103.152 48.6811 97.2427 43.0629 97.2427 35.8336C97.2427 28.552 103.152 22.8872 109.602 22.8872C112.678 22.8872 115.121 24.254 116.395 25.7719H116.592V23.6724H121.972V23.6666ZM116.994 35.8336C116.994 31.2913 113.964 27.9704 110.108 27.9704C106.199 27.9704 102.925 31.2913 102.925 35.8336C102.925 40.3294 106.199 43.6038 110.108 43.6038C113.964 43.6038 116.994 40.3294 116.994 35.8336Z" fill="#4285F4"/>
<path d="M130.841 10.0923V47.8962H125.316V10.0923H130.841Z" fill="#34A853"/>
<path d="M152.373 40.0332L156.77 42.9645C155.351 45.064 151.931 48.6816 146.022 48.6816C138.694 48.6816 133.221 43.0168 133.221 35.7817C133.221 28.1104 138.74 22.8818 145.388 22.8818C152.082 22.8818 155.356 28.2093 156.426 31.0882L157.014 32.5538L139.77 39.6959C141.09 42.284 143.143 43.6042 146.022 43.6042C148.906 43.6042 150.907 42.1851 152.373 40.0332ZM138.839 35.392L150.366 30.6055C149.732 28.9944 147.825 27.872 145.58 27.872C142.701 27.872 138.694 30.4135 138.839 35.392Z" fill="#EA4335"/>
<path d="M20.5062 32.4313V26.9584H38.9487C39.129 27.9123 39.222 29.0406 39.222 30.2619C39.222 34.368 38.0996 39.4454 34.482 43.0629C30.9633 46.727 26.4676 48.6812 20.512 48.6812C9.47324 48.6812 0.190918 39.6896 0.190918 28.6509C0.190918 17.6121 9.47324 8.62061 20.512 8.62061C26.6188 8.62061 30.9692 11.0168 34.2377 14.14L30.3759 18.0018C28.0321 15.8034 24.8565 14.0935 20.5062 14.0935C12.4452 14.0935 6.14068 20.5899 6.14068 28.6509C6.14068 36.7118 12.4452 43.2083 20.5062 43.2083C25.7348 43.2083 28.7125 41.1087 30.6202 39.2011C32.1672 37.654 33.185 35.444 33.5863 32.4255L20.5062 32.4313Z" fill="#4285F4"/>
</g>
<defs>
<clipPath id="clip0_132_692">
<rect width="157.659" height="66.97" fill="white"/>
</clipPath>
</defs>
</svg>
