<svg width="189" height="67" viewBox="0 0 189 67" fill="none" xmlns="http://www.w3.org/2000/svg">
<g opacity="0.25">
<path fill-rule="evenodd" clip-rule="evenodd" d="M24.3199 6.97656C10.8831 6.97656 0 17.8597 0 31.2964C0 42.058 6.96156 51.1475 16.6287 54.3699C17.8447 54.5827 18.3007 53.8531 18.3007 53.2147C18.3007 52.6371 18.2703 50.7219 18.2703 48.6851C12.1599 49.8099 10.5791 47.1955 10.0927 45.8275C9.81915 45.1283 8.63355 42.97 7.59996 42.3924C6.74876 41.9364 5.53277 40.8116 7.56956 40.7812C9.48475 40.7508 10.8527 42.5444 11.3087 43.274C13.4975 46.9523 16.9935 45.9187 18.3919 45.2803C18.6047 43.6996 19.2431 42.6356 19.9423 42.0276C14.5311 41.4196 8.87675 39.322 8.87675 30.0196C8.87675 27.3748 9.81915 25.1861 11.3695 23.4837C11.1263 22.8757 10.2751 20.3829 11.6127 17.0389C11.6127 17.0389 13.6495 16.4005 18.3007 19.5317C20.2463 18.9845 22.3135 18.7109 24.3807 18.7109C26.4479 18.7109 28.515 18.9845 30.4606 19.5317C35.1118 16.3701 37.1486 17.0389 37.1486 17.0389C38.4862 20.3829 37.635 22.8757 37.3918 23.4837C38.9422 25.1861 39.8846 27.3444 39.8846 30.0196C39.8846 39.3524 34.1998 41.4196 28.7886 42.0276C29.6702 42.7876 30.4302 44.2468 30.4302 46.5267C30.4302 49.7795 30.3998 52.3939 30.3998 53.2147C30.3998 53.8531 30.8558 54.6131 32.0718 54.3699C36.8998 52.74 41.095 49.6372 44.0671 45.4981C47.0392 41.359 48.6384 36.3921 48.6397 31.2964C48.6397 17.8597 37.7566 6.97656 24.3199 6.97656Z" fill="#24292E"/>
<path d="M113.375 43.035H113.318C113.344 43.035 113.361 43.0634 113.387 43.0662H113.404L113.375 43.0378V43.035ZM113.387 43.0662C113.123 43.0691 112.459 43.2081 111.758 43.2081C109.545 43.2081 108.779 42.1866 108.779 40.8531V31.9695H113.29C113.545 31.9695 113.744 31.7425 113.744 31.4304V26.6069C113.744 26.3516 113.517 26.1246 113.29 26.1246H108.779V20.1379C108.779 19.9109 108.637 19.769 108.381 19.769H102.253C101.998 19.769 101.856 19.9109 101.856 20.1379V26.2948C101.856 26.2948 98.763 27.0609 98.5644 27.0893C98.3374 27.146 98.1955 27.3446 98.1955 27.5716V31.4304C98.1955 31.7425 98.4225 31.9695 98.6778 31.9695H101.827V41.2759C101.827 48.1989 106.651 48.9083 109.942 48.9083C111.446 48.9083 113.262 48.4259 113.545 48.284C113.716 48.2273 113.801 48.0287 113.801 47.8301V43.5741C113.805 43.4534 113.765 43.3353 113.689 43.2415C113.613 43.1477 113.505 43.0845 113.387 43.0634V43.0662ZM180.62 36.8213C180.62 31.6857 178.548 31.0048 176.364 31.2318C174.661 31.3453 173.299 32.1965 173.299 32.1965V42.1838C173.299 42.1838 174.69 43.1485 176.761 43.2052C179.683 43.2904 180.62 42.2406 180.62 36.8213ZM187.514 36.3673C187.514 46.0993 184.365 48.8799 178.86 48.8799C174.207 48.8799 171.71 46.5249 171.71 46.5249C171.71 46.5249 171.597 47.8301 171.455 48.0003C171.37 48.1706 171.228 48.2273 171.058 48.2273H166.859C166.575 48.2273 166.32 48.0003 166.32 47.745L166.376 16.2224C166.376 15.967 166.603 15.74 166.859 15.74H172.902C173.157 15.74 173.384 15.967 173.384 16.2224V26.919C173.384 26.919 175.711 25.4153 179.116 25.4153L179.087 25.3585C182.492 25.3585 187.514 26.6353 187.514 36.3673ZM162.773 26.1246H156.814C156.502 26.1246 156.332 26.3516 156.332 26.6637V42.0987C156.332 42.0987 154.772 43.2052 152.644 43.2052C150.516 43.2052 149.891 42.2406 149.891 40.1126V26.6353C149.891 26.38 149.664 26.153 149.409 26.153H143.337C143.082 26.153 142.855 26.38 142.855 26.6353V41.134C142.855 47.3761 146.345 48.9366 151.14 48.9366C155.084 48.9366 158.29 46.7519 158.29 46.7519C158.29 46.7519 158.432 47.8584 158.517 48.0287C158.574 48.1706 158.772 48.284 158.971 48.284H162.773C163.085 48.284 163.255 48.0571 163.255 47.8017L163.312 26.6069C163.312 26.3516 163.085 26.1246 162.773 26.1246ZM95.5284 26.0962H89.4849C89.2296 26.0962 89.0026 26.3516 89.0026 26.6637V47.4896C89.0026 48.0571 89.3714 48.2557 89.8538 48.2557H95.3014C95.8689 48.2557 96.0108 48.0003 96.0108 47.4896V26.5786C96.0108 26.3232 95.7838 26.0962 95.5284 26.0962ZM92.5492 16.5061C90.3645 16.5061 88.6337 18.2369 88.6337 20.4216C88.6337 22.6063 90.3645 24.3371 92.5492 24.3371C94.6772 24.3371 96.408 22.6063 96.408 20.4216C96.408 18.2369 94.6772 16.5061 92.5492 16.5061ZM139.337 15.7968H133.35C133.095 15.7968 132.868 16.0237 132.868 16.2791V27.8837H123.476V16.2791C123.476 16.0237 123.249 15.7968 122.994 15.7968H116.95C116.695 15.7968 116.468 16.0237 116.468 16.2791V47.8017C116.468 48.0571 116.723 48.284 116.95 48.284H122.994C123.249 48.284 123.476 48.0571 123.476 47.8017V34.3244H132.868L132.811 47.8017C132.811 48.0571 133.038 48.284 133.293 48.284H139.337C139.592 48.284 139.819 48.0571 139.819 47.8017V16.2791C139.819 16.0237 139.592 15.7968 139.337 15.7968ZM85.7964 29.7564V46.0426C85.7964 46.1561 85.7681 46.3547 85.6262 46.4114C85.6262 46.4114 82.0795 48.9366 76.2347 48.9366C69.1697 48.9366 60.7997 46.7235 60.7997 32.1397C60.7997 17.5559 68.1199 14.5483 75.27 14.5767C81.4553 14.5767 83.9522 15.967 84.3494 16.2224C84.4629 16.3642 84.5196 16.4777 84.5196 16.6196L83.328 21.67C83.328 21.9254 83.0726 22.2375 82.7605 22.1524C81.7391 21.8403 80.2069 21.216 76.6035 21.216C72.4327 21.216 67.9497 22.4077 67.9497 31.7992C67.9497 41.1908 72.2057 42.2973 75.27 42.2973C77.8803 42.2973 78.8166 41.9852 78.8166 41.9852V35.4594H74.6458C74.3337 35.4594 74.1067 35.2324 74.1067 34.977V29.7564C74.1067 29.501 74.3337 29.274 74.6458 29.274H85.2573C85.5694 29.274 85.7964 29.501 85.7964 29.7564Z" fill="#24292E"/>
</g>
</svg>
