<svg width="229" height="67" viewBox="0 0 229 67" fill="none" xmlns="http://www.w3.org/2000/svg">
<g opacity="0.25" clip-path="url(#clip0_132_645)">
<path d="M228.629 30.4647V26.4439H223.636V20.1931L223.468 20.2449L218.778 21.6798L218.685 21.7079V26.4441H211.283V23.8056C211.283 22.5771 211.558 21.6369 212.099 21.0099C212.637 20.3904 213.406 20.0755 214.387 20.0755C215.092 20.0755 215.822 20.2416 216.557 20.5691L216.741 20.6514V16.4169L216.654 16.3851C215.969 16.1387 215.037 16.0146 213.881 16.0146C212.425 16.0146 211.101 16.3316 209.947 16.9597C208.793 17.5887 207.884 18.4866 207.248 19.6283C206.614 20.7686 206.292 22.0856 206.292 23.5431V26.4439H202.815V30.4647H206.292V47.4035H211.283V30.4647H218.685V41.229C218.685 45.6623 220.777 47.9089 224.901 47.9089C225.578 47.9089 226.291 47.8295 227.02 47.674C227.761 47.5143 228.266 47.3549 228.563 47.1846L228.629 47.1457V43.0877L228.426 43.222C228.155 43.4024 227.818 43.5499 227.422 43.6596C227.025 43.7713 226.693 43.8273 226.436 43.8273C225.47 43.8273 224.756 43.567 224.312 43.0532C223.864 42.5348 223.636 41.6282 223.636 40.3601V30.4647H228.629ZM191.67 43.828C189.858 43.828 188.43 43.2273 187.423 42.044C186.411 40.8548 185.897 39.1594 185.897 37.0052C185.897 34.7827 186.411 33.0433 187.424 31.8331C188.431 30.6308 189.845 30.0206 191.629 30.0206C193.36 30.0206 194.737 30.6034 195.724 31.7537C196.716 32.9099 197.219 34.6354 197.219 36.8838C197.219 39.1598 196.746 40.9081 195.813 42.0777C194.886 43.2383 193.492 43.828 191.67 43.828ZM191.891 25.939C188.435 25.939 185.69 26.9517 183.733 28.9491C181.777 30.9466 180.785 33.711 180.785 37.166C180.785 40.4477 181.753 43.0873 183.663 45.0103C185.572 46.934 188.171 47.9085 191.386 47.9085C194.736 47.9085 197.427 46.8816 199.383 44.8566C201.339 42.8338 202.33 40.0956 202.33 36.7213C202.33 33.3883 201.4 30.729 199.565 28.8188C197.73 26.9077 195.147 25.939 191.891 25.939ZM172.738 25.939C170.387 25.939 168.442 26.5403 166.957 27.726C165.462 28.9188 164.704 30.4831 164.704 32.376C164.704 33.36 164.868 34.234 165.19 34.9754C165.514 35.7192 166.015 36.374 166.681 36.9236C167.342 37.4688 168.363 38.0398 169.715 38.6208C170.852 39.0886 171.7 39.4843 172.238 39.7961C172.764 40.1018 173.138 40.409 173.349 40.7082C173.554 41.001 173.658 41.4018 173.658 41.8963C173.658 43.3045 172.603 43.9896 170.434 43.9896C169.629 43.9896 168.711 43.8215 167.705 43.4902C166.707 43.1639 165.764 42.6861 164.911 42.0735L164.704 41.9248V46.7301L164.78 46.7655C165.486 47.0915 166.376 47.3664 167.426 47.5827C168.473 47.7992 169.425 47.9093 170.252 47.9093C172.803 47.9093 174.857 47.3051 176.356 46.1124C177.865 44.9114 178.629 43.3102 178.629 41.3518C178.629 39.939 178.218 38.7274 177.406 37.7503C176.601 36.7812 175.202 35.8914 173.252 35.105C171.698 34.4813 170.703 33.9635 170.292 33.5661C169.896 33.1822 169.695 32.6392 169.695 31.9516C169.695 31.3421 169.943 30.8537 170.452 30.4583C170.966 30.0609 171.68 29.8587 172.576 29.8587C173.408 29.8587 174.259 29.9901 175.105 30.2475C175.951 30.505 176.693 30.8498 177.313 31.2715L177.517 31.4109V26.8526L177.439 26.819C176.867 26.5737 176.113 26.3639 175.197 26.1936C174.285 26.0244 173.458 25.939 172.738 25.939ZM151.693 43.828C149.882 43.828 148.453 43.2273 147.447 42.044C146.434 40.8548 145.921 39.1598 145.921 37.0052C145.921 34.7827 146.434 33.0433 147.448 31.8331C148.454 30.6308 149.868 30.0206 151.653 30.0206C153.383 30.0206 154.76 30.6034 155.747 31.7537C156.739 32.9099 157.242 34.6354 157.242 36.8838C157.242 39.1598 156.769 40.9081 155.836 42.0777C154.909 43.2383 153.516 43.828 151.693 43.828ZM151.915 25.939C148.458 25.939 145.713 26.9517 143.757 28.9491C141.801 30.9466 140.808 33.711 140.808 37.166C140.808 40.449 141.777 43.0873 143.687 45.0103C145.596 46.934 148.195 47.9085 151.41 47.9085C154.759 47.9085 157.451 46.8816 159.407 44.8566C161.363 42.8338 162.354 40.0956 162.354 36.7213C162.354 33.3883 161.424 30.729 159.589 28.8188C157.752 26.9077 155.17 25.939 151.915 25.939ZM133.232 30.0737V26.4439H128.302V47.4031H133.232V36.6817C133.232 34.8586 133.645 33.3609 134.461 32.2296C135.266 31.1118 136.339 30.5454 137.65 30.5454C138.094 30.5454 138.592 30.6186 139.132 30.7635C139.666 30.9075 140.053 31.0638 140.282 31.2284L140.489 31.3786V26.4081L140.409 26.3738C139.95 26.1787 139.3 26.0803 138.479 26.0803C137.24 26.0803 136.131 26.4784 135.181 27.2622C134.348 27.9512 133.745 28.8958 133.285 30.0737H133.232ZM119.473 25.939C117.211 25.939 115.193 26.424 113.477 27.3801C111.758 28.3384 110.428 29.7066 109.523 31.4462C108.622 33.1817 108.165 35.2089 108.165 37.4697C108.165 39.45 108.608 41.2673 109.485 42.869C110.362 44.4733 111.603 45.7284 113.174 46.5989C114.743 47.4683 116.556 47.9091 118.564 47.9091C120.907 47.9091 122.908 47.4407 124.512 46.5169L124.576 46.4797V41.9629L124.369 42.1141C123.643 42.6434 122.831 43.0658 121.957 43.3701C121.086 43.6742 120.291 43.828 119.595 43.828C117.66 43.828 116.107 43.2226 114.98 42.0292C113.85 40.8343 113.277 39.1563 113.277 37.0448C113.277 34.9201 113.875 33.199 115.052 31.929C116.226 30.6629 117.782 30.0206 119.676 30.0206C121.296 30.0206 122.876 30.5693 124.37 31.653L124.576 31.8032V27.0439L124.51 27.0063C123.947 26.6916 123.181 26.4318 122.229 26.2347C121.281 26.0381 120.354 25.939 119.473 25.939ZM104.769 26.4441H99.8393V47.4031H104.769V26.4441ZM102.355 17.5155C101.543 17.5155 100.836 17.7917 100.254 18.3391C99.6703 18.888 99.3742 19.5792 99.3742 20.3948C99.3742 21.1977 99.6668 21.8762 100.245 22.4105C100.82 22.9433 101.53 23.2134 102.355 23.2134C103.18 23.2134 103.893 22.9433 104.474 22.4114C105.059 21.8762 105.356 21.1979 105.356 20.3948C105.356 19.6077 105.067 18.9236 104.498 18.3612C103.93 17.7999 103.208 17.5155 102.355 17.5155ZM90.0536 24.8978V47.4031H95.0851V18.1571H88.1213L79.2698 39.8802L70.68 18.1571H63.4326V47.4029H68.1609V24.8955H68.3232L77.3939 47.4031H80.9622L89.8913 24.8978H90.0536Z" fill="black"/>
<path d="M23.1932 31.5769H0V8.38379H23.1932V31.5769Z" fill="black"/>
<path d="M48.8011 31.5769H25.6084V8.38379H48.8011V31.5769Z" fill="black"/>
<path d="M23.1925 57.1944H0V34.0015H23.1925V57.1944Z" fill="black"/>
<path d="M48.8011 57.1944H25.6084V34.0015H48.8011V57.1944Z" fill="black"/>
</g>
<defs>
<clipPath id="clip0_132_645">
<rect width="228.827" height="66.9738" fill="white"/>
</clipPath>
</defs>
</svg>
