<svg width="162" height="67" viewBox="0 0 162 67" fill="none" xmlns="http://www.w3.org/2000/svg">
<g opacity="0.25" clip-path="url(#clip0_132_689)">
<path d="M51.9665 29.8681C51.9665 26.9917 49.0902 23.9236 44.2962 23.9236C38.927 23.9236 32.7907 27.9505 31.8319 36.0044C30.8731 44.0582 35.8588 47.7016 41.0363 47.7016C46.2138 47.7016 48.7067 45.7841 51.3913 43.0994C49.0902 40.2231 46.022 41.5654 45.4468 41.7571C44.8715 42.1406 43.9127 42.5242 42.3786 42.5242C40.461 42.5242 38.3517 41.5654 38.3517 37.922C51.0078 36.5796 51.9665 32.7445 51.9665 29.8681ZM45.8303 30.2516C45.8303 31.2104 45.4468 32.7445 39.1187 33.5115C40.461 28.7176 42.9539 28.334 44.1045 28.334C45.255 28.5258 45.8303 29.2928 45.8303 30.2516ZM24.5451 31.0187C24.5451 31.0187 21.8605 39.456 21.6687 40.2231C21.6687 39.456 19.5594 24.3071 19.5594 24.3071C14.9572 24.3071 12.4643 27.567 11.3138 31.0187C11.3138 31.0187 8.05386 39.456 7.8621 40.2231C7.67034 39.6478 7.28682 31.2104 7.28682 31.2104C6.90331 26.9917 3.06814 24.3071 0 24.3071L3.83517 47.3181C8.62913 47.3181 11.3138 44.0582 12.6561 40.6066C12.6561 40.6066 15.5324 33.128 15.7242 32.7445C15.7242 33.128 17.8335 47.3181 17.8335 47.3181C22.6275 47.3181 25.3121 44.25 26.6544 40.9901L33.366 24.3071C28.3803 24.3071 25.8874 27.567 24.5451 31.0187ZM69.8001 23.7318C66.9237 23.7318 64.6226 25.2659 62.705 27.7588L64.2391 13.9521C60.2122 13.9521 57.144 17.4038 56.377 22.3895L53.3089 47.1264C55.61 47.1264 57.9111 46.5511 59.2534 44.8253C60.4039 46.3593 62.1297 47.5099 64.6226 47.5099C71.3342 47.5099 75.9364 39.8395 75.9364 32.5527C76.1281 25.8412 72.8682 23.7318 69.8001 23.7318ZM69.0331 35.6209C68.266 39.6478 66.1567 42.3324 63.8556 42.3324C61.7462 42.3324 60.7874 41.3736 60.7874 41.3736C61.171 37.922 61.5545 35.6209 62.3215 33.7033C63.0885 31.7857 65.0061 28.9093 66.9237 28.9093C68.8413 29.1011 69.8001 31.5939 69.0331 35.6209ZM92.8111 24.3071H88.2089V24.1153C88.5924 21.0472 89.1677 19.5131 91.6606 19.3214C93.1946 19.1296 93.9617 18.3626 94.1534 17.4038C94.3452 16.6368 94.7287 14.1439 94.7287 14.1439C85.3325 14.1439 82.4561 18.1708 81.6891 24.3071V24.4989H81.4974C79.9633 24.4989 78.2375 26.2247 78.0457 28.334L77.8539 29.1011H80.9221L78.2375 50.578L77.4704 54.4132C77.6622 54.4132 77.6622 54.4132 77.8539 54.4132C82.2644 54.2214 84.949 50.7698 85.716 45.7841L87.8254 28.9093H89.3595C90.7018 28.9093 92.4276 27.567 92.8111 25.0741V24.3071ZM116.973 23.9236C111.603 23.9236 106.618 27.9505 105.084 34.0868C103.55 40.2231 105.851 47.7016 113.713 47.7016C121.575 47.7016 126.177 40.0313 126.177 33.7033C125.985 27.3752 121.767 23.9236 116.973 23.9236ZM119.082 35.4291C118.89 38.3055 117.548 42.5242 114.096 42.5242C110.645 42.5242 111.22 37.5384 111.412 35.2373C111.795 32.7445 113.138 29.1011 116.206 29.1011C119.082 29.1011 119.466 32.361 119.082 35.4291ZM152.64 31.0187C152.64 31.0187 149.955 39.456 149.763 40.2231C149.763 39.456 147.654 24.3071 147.654 24.3071C143.052 24.3071 140.559 27.567 139.408 31.0187C139.408 31.0187 136.149 39.456 135.957 40.2231C135.957 39.6478 135.381 31.2104 135.381 31.2104C135.19 26.9917 131.163 24.4989 128.095 24.4989L131.93 47.5099C136.724 47.5099 139.408 44.25 140.751 40.7983C140.751 40.7983 143.627 33.3198 143.819 32.9362C143.819 33.3198 145.928 47.5099 145.928 47.5099C150.722 47.5099 153.407 44.4417 154.749 41.1819L161.077 24.3071C156.283 24.3071 153.79 27.567 152.64 31.0187ZM97.2216 14.1439L93.3864 45.5923L92.6193 49.4275C92.8111 49.4275 92.8111 49.4275 93.0029 49.4275C97.2215 49.4275 100.29 45.5923 100.673 40.9901L102.974 22.9648C103.55 17.5956 100.098 14.1439 97.2216 14.1439Z" fill="#1B1B1B"/>
</g>
<defs>
<clipPath id="clip0_132_689">
<rect width="161.844" height="66.97" fill="white"/>
</clipPath>
</defs>
</svg>
