<svg width="186" height="67" viewBox="0 0 186 67" fill="none" xmlns="http://www.w3.org/2000/svg">
<g opacity="0.25" clip-path="url(#clip0_132_638)">
<path d="M20.42 8.37158H0V57.2067L20.42 8.37158Z" fill="black"/>
<path d="M34.7876 8.37158H55.181V57.2067L34.7876 8.37158Z" fill="black"/>
<path d="M27.604 26.3706L40.601 57.2068H32.0738L28.1893 47.3892H18.6777L27.604 26.3706Z" fill="black"/>
<path d="M88.4942 39.4278L90.902 46.332C90.9819 46.5049 91.1016 46.5848 91.3144 46.5848H95.9439C96.1966 46.5848 96.2365 46.465 96.1966 46.2123L86.6318 19.6463C86.5919 19.4335 86.552 19.3936 86.3391 19.3936H80.5923C80.4326 19.3936 80.3395 19.5133 80.3395 19.6862C80.2597 21.083 80.14 21.5087 79.967 21.9211L71.4398 46.1724C71.3999 46.465 71.4931 46.5848 71.7325 46.5848H75.8697C76.1225 46.5848 76.2422 46.5049 76.3353 46.2522L78.6101 39.4278H88.4942ZM79.9271 34.9181C81.1776 31.1401 82.8272 26.2978 83.4923 23.5308H83.5322C84.357 26.4308 86.2992 32.1777 87.1772 34.9181H79.9271Z" fill="black"/>
<path d="M108.493 46.997C110.981 46.997 113.628 46.5447 116.315 45.3874C116.528 45.3076 116.568 45.2145 116.568 45.0149C116.488 44.2699 116.395 43.1924 116.395 42.3676V17.3581C116.395 17.1985 116.395 17.1187 116.195 17.1187H111.686C111.513 17.1187 111.433 17.1985 111.433 17.4113V25.8853C110.728 25.8055 110.236 25.7656 109.65 25.7656C102.374 25.7656 97.9038 30.5679 97.9038 36.5675C97.9038 43.525 102.493 46.997 108.493 46.997ZM111.433 42.3676C110.688 42.6071 109.863 42.7002 109.025 42.7002C105.726 42.7002 103.025 40.8378 103.025 36.3148C103.025 32.3106 105.806 29.9427 109.491 29.9427C110.236 29.9427 110.887 30.0225 111.433 30.2353V42.3676Z" fill="black"/>
<path d="M130.954 25.7656C124.742 25.7656 120.897 30.5281 120.897 36.408C120.897 41.6626 123.957 46.9971 130.861 46.9971C136.701 46.9971 140.799 42.7003 140.799 36.2749C140.799 30.6079 137.327 25.7656 130.954 25.7656ZM130.702 29.9427C134.214 29.9427 135.704 32.9625 135.704 36.408C135.704 40.6649 133.509 42.7801 130.954 42.7801C127.802 42.7801 125.939 40.1328 125.939 36.3149C125.939 32.3905 127.921 29.9427 130.702 29.9427Z" fill="black"/>
<path d="M145.461 17.1187C145.288 17.1187 145.168 17.1985 145.168 17.4113V45.72C145.168 45.8397 145.288 46.0525 145.461 46.0924C147.443 46.7044 149.519 46.997 151.66 46.997C157.793 46.997 163.753 43.1924 163.753 35.5299C163.753 29.9826 159.948 25.7656 153.988 25.7656C152.618 25.7656 151.341 25.9784 150.224 26.3509L150.17 17.4512C150.17 17.1586 150.091 17.1187 149.798 17.1187H145.461ZM158.658 36.0354C158.658 40.6249 155.518 42.78 152.126 42.78C151.421 42.78 150.796 42.7401 150.224 42.5672V30.4881C150.875 30.2353 151.66 30.0225 153.11 30.0225C156.383 30.0225 158.658 32.0978 158.658 36.0354Z" fill="black"/>
<path d="M180.583 37.5254C182.605 37.5254 184.267 37.4855 184.839 37.3525C185.052 37.3126 185.132 37.2328 185.172 37.0598C185.292 36.6075 185.345 35.663 185.345 34.5057C185.345 30.568 182.977 25.7656 176.858 25.7656C170.605 25.7656 167.133 30.8606 167.133 36.6075C167.133 41.7025 169.82 46.9971 177.35 46.9971C180.17 46.9971 181.993 46.5448 183.562 45.7998C183.722 45.72 183.802 45.587 183.802 45.3476V41.9021C183.802 41.7025 183.682 41.6626 183.562 41.7425C181.993 42.4076 180.29 42.7402 178.427 42.7402C174.21 42.7402 172.295 40.4122 172.175 37.5254H180.583ZM172.175 33.9602C172.508 31.9382 173.785 29.7432 176.645 29.7432C179.798 29.7432 180.622 32.3905 180.622 33.5878C180.622 33.6277 180.622 33.8006 180.622 33.9203C180.45 33.9602 179.917 33.9602 178.348 33.9602H172.175Z" fill="black"/>
</g>
<defs>
<clipPath id="clip0_132_638">
<rect width="185.573" height="66.9738" fill="white"/>
</clipPath>
</defs>
</svg>
