<svg width="73" height="73" viewBox="0 0 73 73" fill="none" xmlns="http://www.w3.org/2000/svg">
<rect x="27.2266" y="31.5981" width="18.3178" height="41.215" fill="white"/>
<path d="M73 21.4611V51.5389C73 63.3921 63.3921 73 51.5389 73H43.8518C40.8888 73 38.4865 70.5977 38.4865 67.6347V36.5818C38.4878 36.555 38.4878 36.5268 38.4878 36.5C38.4878 34.7657 37.7166 33.2124 36.5 32.1635C35.2834 33.2124 34.5122 34.767 34.5122 36.5V67.6347C34.5122 70.5977 32.1099 73 29.1469 73H21.4611C9.60787 73 0 63.3921 0 51.5389V21.4611C0 9.60787 9.60787 0 21.4611 0H51.5389C63.3921 0 73 9.60787 73 21.4611Z" fill="#1B1B1B"/>
<path d="M47.5391 22.7354C46.0355 25.8566 43.2992 27.988 40.1967 28.8236C38.9131 25.8768 38.8729 22.4108 40.3765 19.2869C41.8814 16.1629 44.6177 14.0316 47.7215 13.1973C49.0012 16.1441 49.0427 19.6115 47.5391 22.7354Z" fill="white"/>
<path d="M54.1438 36.5495C50.765 37.3207 47.3929 36.5092 44.8069 34.6046C46.3105 31.765 48.9945 29.5706 52.376 28.7993C55.7561 28.0281 59.1295 28.8382 61.7156 30.7456C60.2093 33.5838 57.5253 35.7782 54.1438 36.5495Z" fill="white"/>
<path d="M47.4613 50.3251C44.7518 48.1643 43.2831 45.0216 43.1597 41.8131C46.3171 41.2176 49.7066 41.9486 52.4175 44.1108C55.1283 46.273 56.597 49.4157 56.7191 52.6268C53.5603 53.2184 50.1721 52.4874 47.4613 50.3265V50.3251Z" fill="white"/>
<path d="M32.6222 19.2867C34.1258 22.408 34.0856 25.878 32.8046 28.8222C29.7008 27.9879 26.9645 25.8592 25.4609 22.7353C23.9559 19.6113 23.9962 16.1427 25.2798 13.1958C28.3823 14.0328 31.1186 16.1615 32.6222 19.2854V19.2867Z" fill="white"/>
<path d="M20.624 28.7995C24.0028 29.5708 26.6895 31.7652 28.1931 34.6021C25.6057 36.5081 22.2363 37.3209 18.8548 36.5483C15.4747 35.7771 12.788 33.5827 11.2844 30.7418C13.8732 28.8384 17.2439 28.0269 20.624 28.7982V28.7995Z" fill="white"/>
<path d="M20.5813 44.1108C23.2907 41.9499 26.6816 41.2176 29.8377 41.8118C29.7157 45.0229 28.2483 48.1643 25.5375 50.3265C22.8266 52.4887 19.4358 53.221 16.2783 52.6255C16.4044 49.4144 17.8705 46.273 20.5813 44.1121V44.1108Z" fill="white"/>
<path d="M34.5122 10.3859C34.5122 8.65294 35.2835 7.09969 36.4987 6.05078C37.7153 7.09969 38.4865 8.65294 38.4865 10.3859C38.4865 12.1189 37.7153 13.6735 36.4987 14.7224C35.2821 13.6722 34.5122 12.1203 34.5122 10.3859Z" fill="white"/>
<path d="M14.552 21.9132C13.1973 20.8335 12.4636 19.2614 12.4019 17.6572C13.9806 17.3595 15.6747 17.7256 17.0308 18.8054C18.3868 19.8852 19.1205 21.4572 19.1822 23.0627C17.6035 23.3592 15.9081 22.993 14.5533 21.9119L14.552 21.9132Z" fill="white"/>
<path d="M11.1196 44.7051C9.43085 45.0901 7.74347 44.685 6.45044 43.7326C7.20158 42.3122 8.54424 41.2163 10.2343 40.83C11.9244 40.4437 13.6104 40.8502 14.9048 41.8025C14.1523 43.2216 12.8096 44.3188 11.1196 44.7038V44.7051Z" fill="white"/>
<path d="M26.7996 61.5988C26.0484 63.1601 24.6789 64.2251 23.1284 64.6423C22.4872 63.1695 22.4658 61.4352 23.2183 59.8739C23.9707 58.3113 25.3389 57.2463 26.8908 56.8291C27.5306 58.3032 27.5521 60.0362 26.7996 61.5975V61.5988Z" fill="white"/>
<path d="M49.7832 59.8739C50.5357 61.4352 50.5155 63.1695 49.8744 64.6423C48.3225 64.2251 46.9543 63.1615 46.2019 61.5988C45.4494 60.0375 45.4695 58.3032 46.1106 56.8291C47.6626 57.2476 49.0294 58.3113 49.7818 59.8739H49.7832Z" fill="white"/>
<path d="M62.7643 40.827C64.4531 41.212 65.7971 42.3092 66.5496 43.7283C65.2565 44.682 63.5705 45.0871 61.8804 44.7021C60.1904 44.3171 58.8464 43.2199 58.0952 41.7995C59.3896 40.8471 61.0743 40.4421 62.7643 40.827Z" fill="white"/>
<path d="M55.9665 18.8028C57.3213 17.723 59.0167 17.3555 60.5941 17.652C60.5337 19.2575 59.8 20.8282 58.444 21.9093C57.0892 22.9904 55.3938 23.3566 53.8137 23.0588C53.8768 21.4533 54.6091 19.8826 55.9652 18.8015L55.9665 18.8028Z" fill="white"/>
</svg>
