<svg width="94" height="37" viewBox="0 0 94 37" fill="none" xmlns="http://www.w3.org/2000/svg">
<circle cx="75.5" cy="18.5" r="18.5" fill="#00704A"/>
<circle cx="18.5" cy="18.5" r="18.5" fill="#00704A"/>
<path d="M68.9829 12.197C70.1913 12.197 71.1709 11.2174 71.1709 10.009C71.1709 8.80065 70.1913 7.82104 68.9829 7.82104C67.7745 7.82104 66.7949 8.80065 66.7949 10.009C66.7949 11.2174 67.7745 12.197 68.9829 12.197Z" fill="white"/>
<path d="M73.2372 13.8551V25.9941H77.0062V19.9911C77.0062 18.4071 77.3042 16.8731 79.2682 16.8731C81.2052 16.8731 81.2292 18.6841 81.2292 20.0911V25.9951H85.0002V19.3381C85.0002 16.0681 84.2962 13.5551 80.4742 13.5551C78.6392 13.5551 77.4092 14.5621 76.9062 15.5151H76.8552V13.8551H73.2372ZM67.0952 13.8551H70.8702V25.9941H67.0952V13.8551Z" fill="white"/>
<path d="M18.999 14.377C17.7726 14.377 16.5965 14.8641 15.7293 15.7313C14.8622 16.5985 14.375 17.7746 14.375 19.001C14.375 20.2273 14.8622 21.4034 15.7293 22.2706C16.5965 23.1378 17.7726 23.625 18.999 23.625C20.2254 23.625 21.4015 23.1378 22.2687 22.2706C23.1358 21.4034 23.623 20.2273 23.623 19.001C23.623 17.7746 23.1358 16.5985 22.2687 15.7313C21.4015 14.8641 20.2254 14.377 18.999 14.377ZM18.999 22.004C18.2023 22.004 17.4382 21.6875 16.8749 21.1241C16.3115 20.5607 15.995 19.7967 15.995 19C15.995 18.2032 16.3115 17.4392 16.8749 16.8758C17.4382 16.3124 18.2023 15.996 18.999 15.996C19.7957 15.996 20.5598 16.3124 21.1231 16.8758C21.6865 17.4392 22.003 18.2032 22.003 19C22.003 19.7967 21.6865 20.5607 21.1231 21.1241C20.5598 21.6875 19.7957 22.004 18.999 22.004Z" fill="white"/>
<path d="M23.806 15.285C24.4014 15.285 24.884 14.8024 24.884 14.207C24.884 13.6117 24.4014 13.129 23.806 13.129C23.2107 13.129 22.728 13.6117 22.728 14.207C22.728 14.8024 23.2107 15.285 23.806 15.285Z" fill="white"/>
<path d="M27.533 13.111C27.3015 12.5132 26.9477 11.9703 26.4943 11.5171C26.0409 11.0638 25.4979 10.7103 24.9 10.479C24.2003 10.2164 23.4611 10.0743 22.714 10.059C21.751 10.017 21.446 10.005 19.004 10.005C16.562 10.005 16.249 10.005 15.294 10.059C14.5473 10.0736 13.8087 10.2156 13.11 10.479C12.5119 10.71 11.9687 11.0635 11.5153 11.5167C11.0619 11.97 10.7082 12.513 10.477 13.111C10.2143 13.8106 10.0726 14.5498 10.058 15.297C10.015 16.259 10.002 16.564 10.002 19.007C10.002 21.449 10.002 21.76 10.058 22.717C10.073 23.465 10.214 24.203 10.477 24.904C10.7088 25.5018 11.0628 26.0446 11.5164 26.4978C11.9699 26.951 12.513 27.3046 13.111 27.536C13.8084 27.8092 14.5473 27.9614 15.296 27.986C16.259 28.028 16.564 28.041 19.006 28.041C21.448 28.041 21.761 28.041 22.716 27.986C23.4631 27.9708 24.2022 27.8291 24.902 27.567C25.4997 27.3352 26.0426 26.9813 26.4959 26.528C26.9493 26.0746 27.3031 25.5318 27.535 24.934C27.798 24.234 27.939 23.496 27.954 22.748C27.997 21.786 28.01 21.481 28.01 19.038C28.01 16.595 28.01 16.285 27.954 15.328C27.9423 14.5703 27.7999 13.8203 27.533 13.111ZM26.315 22.643C26.3085 23.2193 26.2033 23.7902 26.004 24.331C25.8538 24.7199 25.6239 25.073 25.329 25.3677C25.0342 25.6624 24.6809 25.8921 24.292 26.042C23.7572 26.2405 23.1923 26.3456 22.622 26.353C21.672 26.397 21.404 26.408 18.968 26.408C16.53 26.408 16.281 26.408 15.313 26.353C14.7429 26.346 14.1783 26.2408 13.644 26.042C13.2536 25.893 12.899 25.6637 12.6028 25.369C12.3067 25.0742 12.0758 24.7206 11.925 24.331C11.7284 23.7961 11.6233 23.2318 11.614 22.662C11.571 21.712 11.561 21.444 11.561 19.008C11.561 16.571 11.561 16.322 11.614 15.353C11.6204 14.777 11.7256 14.2064 11.925 13.666C12.23 12.877 12.855 12.256 13.644 11.954C14.1785 11.7561 14.743 11.651 15.313 11.643C16.264 11.6 16.531 11.588 18.968 11.588C21.405 11.588 21.655 11.588 22.622 11.643C23.1924 11.6499 23.7573 11.7551 24.292 11.954C24.6809 12.1043 25.0341 12.3342 25.3289 12.629C25.6238 12.9239 25.8537 13.2771 26.004 13.666C26.2005 14.201 26.3056 14.7652 26.315 15.335C26.358 16.286 26.369 16.553 26.369 18.99C26.369 21.426 26.369 21.688 26.326 22.644H26.315V22.643Z" fill="white"/>
</svg>
