<svg width="73" height="78" viewBox="0 0 73 78" fill="none" xmlns="http://www.w3.org/2000/svg">
<rect x="27.2266" y="30.8021" width="18.3178" height="41.215" fill="white"/>
<path d="M73 23.2048V54.6799C73 67.0839 63.3921 77.1381 51.5389 77.1381H43.8518C40.8888 77.1381 38.4865 74.6242 38.4865 71.5236V39.028C38.4878 38.9999 38.4878 38.9704 38.4878 38.9424C38.4878 37.1275 37.7166 35.502 36.5 34.4044C35.2834 35.502 34.5122 37.1289 34.5122 38.9424V71.5236C34.5122 74.6242 32.1099 77.1381 29.1469 77.1381H21.4611C9.60787 77.1381 0 67.0839 0 54.6799V23.2048C0 10.8008 9.60787 0.746582 21.4611 0.746582H51.5389C63.3921 0.746582 73 10.8008 73 23.2048Z" fill="#1B1B1B"/>
<path d="M47.5391 24.5383C46.0355 27.8045 43.2992 30.0349 40.1967 30.9094C38.9131 27.8256 38.8729 24.1986 40.3765 20.9295C41.8814 17.6605 44.6177 15.4301 47.7215 14.557C49.0012 17.6408 49.0427 21.2692 47.5391 24.5383Z" fill="white"/>
<path d="M54.1438 38.9943C50.765 39.8014 47.3929 38.9522 44.8069 36.959C46.3105 33.9875 48.9945 31.6912 52.376 30.8841C55.7561 30.077 59.1295 30.9248 61.7156 32.9207C60.2093 35.8908 57.5253 38.1872 54.1438 38.9943Z" fill="white"/>
<path d="M47.4613 53.4097C44.7518 51.1484 43.2831 47.8597 43.1597 44.5022C46.3171 43.879 49.7066 44.644 52.4175 46.9066C55.1283 49.1693 56.597 52.458 56.7191 55.8183C53.5603 56.4373 50.1721 55.6723 47.4613 53.4111V53.4097Z" fill="white"/>
<path d="M32.6222 20.9296C34.1258 24.1958 34.0856 27.8271 32.8046 30.908C29.7008 30.035 26.9645 27.8074 25.4609 24.5383C23.9559 21.2693 23.9962 17.6395 25.2798 14.5557C28.3823 15.4315 31.1186 17.6591 32.6222 20.9282V20.9296Z" fill="white"/>
<path d="M20.624 30.8841C24.0028 31.6912 26.6895 33.9875 28.1931 36.9562C25.6057 38.9508 22.2363 39.8014 18.8548 38.9929C15.4747 38.1858 12.788 35.8895 11.2844 32.9166C13.8732 30.9248 17.2439 30.0756 20.624 30.8827V30.8841Z" fill="white"/>
<path d="M20.5813 46.9066C23.2907 44.6454 26.6816 43.879 29.8377 44.5008C29.7157 47.8611 28.2483 51.1484 25.5375 53.4111C22.8266 55.6738 19.4358 56.4401 16.2783 55.8169C16.4044 52.4566 17.8705 49.1693 20.5813 46.908V46.9066Z" fill="white"/>
<path d="M34.5122 11.615C34.5122 9.80155 35.2835 8.17614 36.4987 7.07849C37.7153 8.17614 38.4865 9.80155 38.4865 11.615C38.4865 13.4285 37.7153 15.0554 36.4987 16.153C35.2821 15.054 34.5122 13.43 34.5122 11.615Z" fill="white"/>
<path d="M14.552 23.6779C13.1973 22.5479 12.4636 20.9029 12.4019 19.2241C13.9806 18.9125 15.6747 19.2957 17.0308 20.4256C18.3868 21.5556 19.1205 23.2006 19.1822 24.8808C17.6035 25.191 15.9081 24.8078 14.5533 23.6764L14.552 23.6779Z" fill="white"/>
<path d="M11.1196 47.5285C9.43085 47.9313 7.74347 47.5074 6.45044 46.5108C7.20158 45.0244 8.54424 43.8776 10.2343 43.4734C11.9244 43.0691 13.6104 43.4944 14.9048 44.491C14.1523 45.9761 12.8096 47.1242 11.1196 47.5271V47.5285Z" fill="white"/>
<path d="M26.7996 65.2073C26.0484 66.8411 24.6789 67.9556 23.1284 68.3921C22.4872 66.8509 22.4658 65.036 23.2183 63.4022C23.9707 61.767 25.3389 60.6525 26.8908 60.2159C27.5306 61.7585 27.5521 63.572 26.7996 65.2059V65.2073Z" fill="white"/>
<path d="M49.7832 63.4022C50.5357 65.036 50.5155 66.8509 49.8744 68.3921C48.3225 67.9556 46.9543 66.8425 46.2019 65.2073C45.4494 63.5734 45.4695 61.7585 46.1106 60.2159C47.6626 60.6539 49.0294 61.767 49.7818 63.4022H49.7832Z" fill="white"/>
<path d="M62.7643 43.4706C64.4531 43.8734 65.7971 45.0216 66.5496 46.5066C65.2565 47.5046 63.5705 47.9285 61.8804 47.5257C60.1904 47.1228 58.8464 45.9747 58.0952 44.4882C59.3896 43.4916 61.0743 43.0677 62.7643 43.4706Z" fill="white"/>
<path d="M55.9665 20.4227C57.3213 19.2928 59.0167 18.9082 60.5941 19.2184C60.5337 20.8986 59.8 22.5422 58.444 23.6736C57.0892 24.8049 55.3938 25.1881 53.8137 24.8765C53.8768 23.1963 54.6091 21.5527 55.9652 20.4213L55.9665 20.4227Z" fill="white"/>
</svg>
